<svg width="173" height="157" viewBox="0 0 173 157" fill="none" xmlns="http://www.w3.org/2000/svg">
<path d="M21.492 125.864C21.492 127.328 21.156 128.672 20.484 129.896C19.812 131.096 18.78 132.068 17.388 132.812C15.996 133.556 14.268 133.928 12.204 133.928H8.388V143H2.232V117.728H12.204C14.22 117.728 15.924 118.076 17.316 118.772C18.708 119.468 19.752 120.428 20.448 121.652C21.144 122.876 21.492 124.28 21.492 125.864ZM11.736 129.032C12.912 129.032 13.788 128.756 14.364 128.204C14.94 127.652 15.228 126.872 15.228 125.864C15.228 124.856 14.94 124.076 14.364 123.524C13.788 122.972 12.912 122.696 11.736 122.696H8.388V129.032H11.736ZM43.6328 132.632C43.6328 133.208 43.5968 133.808 43.5248 134.432H29.5928C29.6888 135.68 30.0848 136.64 30.7808 137.312C31.5008 137.96 32.3768 138.284 33.4088 138.284C34.9448 138.284 36.0128 137.636 36.6128 136.34H43.1648C42.8288 137.66 42.2168 138.848 41.3288 139.904C40.4648 140.96 39.3728 141.788 38.0528 142.388C36.7328 142.988 35.2568 143.288 33.6248 143.288C31.6568 143.288 29.9048 142.868 28.3688 142.028C26.8328 141.188 25.6328 139.988 24.7688 138.428C23.9048 136.868 23.4728 135.044 23.4728 132.956C23.4728 130.868 23.8928 129.044 24.7328 127.484C25.5968 125.924 26.7968 124.724 28.3328 123.884C29.8688 123.044 31.6328 122.624 33.6248 122.624C35.5688 122.624 37.2968 123.032 38.8088 123.848C40.3208 124.664 41.4968 125.828 42.3368 127.34C43.2008 128.852 43.6328 130.616 43.6328 132.632ZM37.3328 131.012C37.3328 129.956 36.9728 129.116 36.2528 128.492C35.5328 127.868 34.6328 127.556 33.5528 127.556C32.5208 127.556 31.6448 127.856 30.9248 128.456C30.2288 129.056 29.7968 129.908 29.6288 131.012H37.3328ZM58.0764 137.78V143H54.9444C52.7124 143 50.9724 142.46 49.7244 141.38C48.4764 140.276 47.8524 138.488 47.8524 136.016V128.024H45.4044V122.912H47.8524V118.016H54.0084V122.912H58.0404V128.024H54.0084V136.088C54.0084 136.688 54.1524 137.12 54.4404 137.384C54.7284 137.648 55.2084 137.78 55.8804 137.78H58.0764ZM85.9103 125.72C85.4543 124.88 84.7943 124.244 83.9303 123.812C83.0903 123.356 82.0943 123.128 80.9423 123.128C78.9503 123.128 77.3543 123.788 76.1543 125.108C74.9543 126.404 74.3543 128.144 74.3543 130.328C74.3543 132.656 74.9783 134.48 76.2263 135.8C77.4983 137.096 79.2383 137.744 81.4463 137.744C82.9583 137.744 84.2303 137.36 85.2623 136.592C86.3183 135.824 87.0863 134.72 87.5663 133.28H79.7543V128.744H93.1463V134.468C92.6903 136.004 91.9103 137.432 90.8063 138.752C89.7263 140.072 88.3463 141.14 86.6663 141.956C84.9863 142.772 83.0903 143.18 80.9783 143.18C78.4823 143.18 76.2503 142.64 74.2823 141.56C72.3383 140.456 70.8143 138.932 69.7103 136.988C68.6303 135.044 68.0903 132.824 68.0903 130.328C68.0903 127.832 68.6303 125.612 69.7103 123.668C70.8143 121.7 72.3383 120.176 74.2823 119.096C76.2263 117.992 78.4463 117.44 80.9423 117.44C83.9663 117.44 86.5103 118.172 88.5743 119.636C90.6623 121.1 92.0423 123.128 92.7143 125.72H85.9103ZM105.7 143.288C103.732 143.288 101.956 142.868 100.372 142.028C98.8122 141.188 97.5762 139.988 96.6642 138.428C95.7762 136.868 95.3322 135.044 95.3322 132.956C95.3322 130.892 95.7882 129.08 96.7002 127.52C97.6122 125.936 98.8602 124.724 100.444 123.884C102.028 123.044 103.804 122.624 105.772 122.624C107.74 122.624 109.516 123.044 111.1 123.884C112.684 124.724 113.932 125.936 114.844 127.52C115.756 129.08 116.212 130.892 116.212 132.956C116.212 135.02 115.744 136.844 114.808 138.428C113.896 139.988 112.636 141.188 111.028 142.028C109.444 142.868 107.668 143.288 105.7 143.288ZM105.7 137.96C106.876 137.96 107.872 137.528 108.688 136.664C109.528 135.8 109.948 134.564 109.948 132.956C109.948 131.348 109.54 130.112 108.724 129.248C107.932 128.384 106.948 127.952 105.772 127.952C104.572 127.952 103.576 128.384 102.784 129.248C101.992 130.088 101.596 131.324 101.596 132.956C101.596 134.564 101.98 135.8 102.748 136.664C103.54 137.528 104.524 137.96 105.7 137.96ZM118.254 132.92C118.254 130.856 118.638 129.044 119.406 127.484C120.198 125.924 121.266 124.724 122.61 123.884C123.954 123.044 125.454 122.624 127.11 122.624C128.526 122.624 129.762 122.912 130.818 123.488C131.898 124.064 132.726 124.82 133.302 125.756V122.912H139.458V143H133.302V140.156C132.702 141.092 131.862 141.848 130.782 142.424C129.726 143 128.49 143.288 127.074 143.288C125.442 143.288 123.954 142.868 122.61 142.028C121.266 141.164 120.198 139.952 119.406 138.392C118.638 136.808 118.254 134.984 118.254 132.92ZM133.302 132.956C133.302 131.42 132.87 130.208 132.006 129.32C131.166 128.432 130.134 127.988 128.91 127.988C127.686 127.988 126.642 128.432 125.778 129.32C124.938 130.184 124.518 131.384 124.518 132.92C124.518 134.456 124.938 135.68 125.778 136.592C126.642 137.48 127.686 137.924 128.91 137.924C130.134 137.924 131.166 137.48 132.006 136.592C132.87 135.704 133.302 134.492 133.302 132.956ZM150.068 116.36V143H143.912V116.36H150.068ZM162.701 143.288C160.949 143.288 159.389 142.988 158.021 142.388C156.653 141.788 155.573 140.972 154.781 139.94C153.989 138.884 153.545 137.708 153.449 136.412H159.533C159.605 137.108 159.929 137.672 160.505 138.104C161.081 138.536 161.789 138.752 162.629 138.752C163.397 138.752 163.985 138.608 164.393 138.32C164.825 138.008 165.041 137.612 165.041 137.132C165.041 136.556 164.741 136.136 164.141 135.872C163.541 135.584 162.569 135.272 161.225 134.936C159.785 134.6 158.585 134.252 157.625 133.892C156.665 133.508 155.837 132.92 155.141 132.128C154.445 131.312 154.097 130.22 154.097 128.852C154.097 127.7 154.409 126.656 155.033 125.72C155.681 124.76 156.617 124.004 157.841 123.452C159.089 122.9 160.565 122.624 162.269 122.624C164.789 122.624 166.769 123.248 168.209 124.496C169.673 125.744 170.513 127.4 170.729 129.464H165.041C164.945 128.768 164.633 128.216 164.105 127.808C163.601 127.4 162.929 127.196 162.089 127.196C161.369 127.196 160.817 127.34 160.433 127.628C160.049 127.892 159.857 128.264 159.857 128.744C159.857 129.32 160.157 129.752 160.757 130.04C161.381 130.328 162.341 130.616 163.637 130.904C165.125 131.288 166.337 131.672 167.273 132.056C168.209 132.416 169.025 133.016 169.721 133.856C170.441 134.672 170.813 135.776 170.837 137.168C170.837 138.344 170.501 139.4 169.829 140.336C169.181 141.248 168.233 141.968 166.985 142.496C165.761 143.024 164.333 143.288 162.701 143.288Z" fill="#FC8721"/>
<path d="M100.558 28.0116C106.595 28.0116 111.489 21.741 111.489 14.0058C111.489 6.27061 106.595 0 100.558 0C94.5209 0 89.627 6.27061 89.627 14.0058C89.627 21.741 94.5209 28.0116 100.558 28.0116Z" fill="#FC8721"/>
<path d="M74.0008 28.0116C80.0379 28.0116 84.9319 21.741 84.9319 14.0058C84.9319 6.27061 80.0379 0 74.0008 0C67.9638 0 63.0698 6.27061 63.0698 14.0058C63.0698 21.741 67.9638 28.0116 74.0008 28.0116Z" fill="#FC8721"/>
<path d="M53.931 50.1552C59.968 50.1552 64.862 43.8846 64.862 36.1494C64.862 28.4142 59.968 22.1436 53.931 22.1436C47.894 22.1436 43 28.4142 43 36.1494C43 43.8846 47.894 50.1552 53.931 50.1552Z" fill="#FC8721"/>
<path d="M120.628 50.1552C126.665 50.1552 131.559 43.8846 131.559 36.1494C131.559 28.4142 126.665 22.1436 120.628 22.1436C114.591 22.1436 109.697 28.4142 109.697 36.1494C109.697 43.8846 114.591 50.1552 120.628 50.1552Z" fill="#FC8721"/>
<path d="M116.299 62.3732L100.796 37.9846C99.3503 35.7096 97.3536 33.8364 94.9911 32.5385C92.6286 31.2406 89.9767 30.5602 87.2812 30.5602C84.5857 30.5602 81.9338 31.2406 79.5713 32.5385C77.2088 33.8364 75.2121 35.7096 73.7664 37.9846L58.259 62.3732C51.4801 73.0325 59.1409 87.0002 71.7738 87.0002H72.9322V66.5016H68.3414C68.0127 66.5026 67.6919 66.4002 67.4244 66.209C67.157 66.0178 66.9564 65.7474 66.851 65.4359C66.7456 65.1245 66.7407 64.7878 66.8371 64.4735C66.9335 64.1592 67.1262 63.8831 67.388 63.6842L86.3278 49.44C86.6015 49.2305 86.9365 49.117 87.2812 49.117C87.6259 49.117 87.961 49.2305 88.2346 49.44L107.16 63.6413C107.422 63.8401 107.615 64.1163 107.711 64.4306C107.807 64.7449 107.803 65.0816 107.697 65.393C107.592 65.7045 107.391 65.9749 107.124 66.1661C106.856 66.3573 106.535 66.4597 106.207 66.4587H101.616V86.9573H102.774C115.417 87.0002 123.078 73.0325 116.299 62.3732Z" fill="#FC8721"/>
<path d="M87.2814 69.8385C89.0514 69.8385 90.749 70.5417 92.0006 71.7933C93.2522 73.0449 93.9554 74.7424 93.9554 76.5125V87.0001H80.6074V76.5125C80.6074 74.7424 81.3106 73.0449 82.5622 71.7933C83.8138 70.5417 85.5113 69.8385 87.2814 69.8385V69.8385Z" fill="#FC8721"/>
</svg>
